<?xml version="1.0" encoding="UTF-8"?>
<svg viewBox="0 0 200 200" xmlns="http://www.w3.org/2000/svg">
  <rect width="200" height="200" rx="28" fill="#0B0F14"/>
  <g transform="translate(56, 40)">
    <rect x="0" y="0" width="24" height="120" rx="12" fill="#E8EDF3"/>
    <path d="M 20,60 C 32,48 54,22 78,4 C 90,-6 100,-8 104,0 C 106,6 100,12 94,16
             C 74,30 50,50 36,62 C 28,68 22,66 20,62 Z" fill="#E8EDF3"/>
    <path d="M 20,60 C 32,72 54,98 78,116 C 90,126 100,128 104,120 C 106,114 100,108 94,104
             C 74,90 50,70 36,58 C 28,52 22,54 20,58 Z" fill="#E8EDF3"/>
    <circle cx="22" cy="60" r="10" fill="#FF6A3D"/>
  </g>
</svg>
